<mxfile host="app.diagrams.net" modified="2023-10-23T15:06:27.115Z" agent="Mozilla/5.0 (Windows NT 10.0; Win64; x64) AppleWebKit/537.36 (KHTML, like Gecko) Chrome/118.0.0.0 Safari/537.36" etag="uTq7LKyZxA4R0P8Gwacb" version="22.0.6" type="github">
  <diagram name="Page-1" id="3L_BJHFlt_Xqs4L_v1Af">
    <mxGraphModel dx="2261" dy="1919" grid="1" gridSize="10" guides="1" tooltips="1" connect="1" arrows="1" fold="1" page="1" pageScale="1" pageWidth="827" pageHeight="1169" math="0" shadow="0">
      <root>
        <mxCell id="0" />
        <mxCell id="1" parent="0" />
        <mxCell id="LZMtIkJjisC_x56uzXUe-4" style="edgeStyle=orthogonalEdgeStyle;rounded=0;orthogonalLoop=1;jettySize=auto;html=1;exitX=0.5;exitY=1;exitDx=0;exitDy=0;entryX=0.5;entryY=0;entryDx=0;entryDy=0;" edge="1" parent="1" source="LZMtIkJjisC_x56uzXUe-1" target="LZMtIkJjisC_x56uzXUe-3">
          <mxGeometry relative="1" as="geometry" />
        </mxCell>
        <mxCell id="LZMtIkJjisC_x56uzXUe-11" style="edgeStyle=orthogonalEdgeStyle;rounded=0;orthogonalLoop=1;jettySize=auto;html=1;exitX=1;exitY=0.5;exitDx=0;exitDy=0;entryX=0.5;entryY=1;entryDx=0;entryDy=0;" edge="1" parent="1" source="LZMtIkJjisC_x56uzXUe-1" target="LZMtIkJjisC_x56uzXUe-5">
          <mxGeometry relative="1" as="geometry" />
        </mxCell>
        <mxCell id="LZMtIkJjisC_x56uzXUe-1" value="api-gw (8080)" style="rounded=0;whiteSpace=wrap;html=1;" vertex="1" parent="1">
          <mxGeometry x="-140" y="60" width="120" height="60" as="geometry" />
        </mxCell>
        <mxCell id="LZMtIkJjisC_x56uzXUe-2" value="" style="endArrow=classic;html=1;rounded=0;" edge="1" parent="1">
          <mxGeometry width="50" height="50" relative="1" as="geometry">
            <mxPoint x="-250" y="90" as="sourcePoint" />
            <mxPoint x="-140" y="90" as="targetPoint" />
          </mxGeometry>
        </mxCell>
        <mxCell id="LZMtIkJjisC_x56uzXUe-3" value="keycloak (8181)" style="rounded=0;whiteSpace=wrap;html=1;" vertex="1" parent="1">
          <mxGeometry x="-140" y="190" width="120" height="60" as="geometry" />
        </mxCell>
        <mxCell id="LZMtIkJjisC_x56uzXUe-5" value="discovery-server (8761)" style="rounded=0;whiteSpace=wrap;html=1;" vertex="1" parent="1">
          <mxGeometry x="80" y="-30" width="120" height="60" as="geometry" />
        </mxCell>
        <mxCell id="LZMtIkJjisC_x56uzXUe-6" value="keycloak-postgres (5433)" style="shape=cylinder3;whiteSpace=wrap;html=1;boundedLbl=1;backgroundOutline=1;size=15;fillColor=#dae8fc;strokeColor=#6c8ebf;" vertex="1" parent="1">
          <mxGeometry x="-130" y="290" width="100" height="90" as="geometry" />
        </mxCell>
        <mxCell id="LZMtIkJjisC_x56uzXUe-7" style="edgeStyle=orthogonalEdgeStyle;rounded=0;orthogonalLoop=1;jettySize=auto;html=1;exitX=0.5;exitY=1;exitDx=0;exitDy=0;entryX=0.5;entryY=0;entryDx=0;entryDy=0;entryPerimeter=0;" edge="1" parent="1" source="LZMtIkJjisC_x56uzXUe-3" target="LZMtIkJjisC_x56uzXUe-6">
          <mxGeometry relative="1" as="geometry" />
        </mxCell>
        <mxCell id="LZMtIkJjisC_x56uzXUe-9" style="edgeStyle=orthogonalEdgeStyle;rounded=0;orthogonalLoop=1;jettySize=auto;html=1;exitX=0;exitY=0.5;exitDx=0;exitDy=0;entryX=0;entryY=0.5;entryDx=0;entryDy=0;entryPerimeter=0;" edge="1" parent="1" source="LZMtIkJjisC_x56uzXUe-8" target="LZMtIkJjisC_x56uzXUe-8">
          <mxGeometry relative="1" as="geometry" />
        </mxCell>
        <mxCell id="LZMtIkJjisC_x56uzXUe-10" style="edgeStyle=orthogonalEdgeStyle;rounded=0;orthogonalLoop=1;jettySize=auto;html=1;exitX=0;exitY=0.5;exitDx=0;exitDy=0;entryX=1;entryY=0.5;entryDx=0;entryDy=0;" edge="1" parent="1" source="LZMtIkJjisC_x56uzXUe-8" target="LZMtIkJjisC_x56uzXUe-5">
          <mxGeometry relative="1" as="geometry" />
        </mxCell>
        <mxCell id="LZMtIkJjisC_x56uzXUe-8" value="customer-service (random)" style="rounded=0;whiteSpace=wrap;html=1;" vertex="1" parent="1">
          <mxGeometry x="292" y="-30" width="120" height="60" as="geometry" />
        </mxCell>
        <mxCell id="LZMtIkJjisC_x56uzXUe-12" style="edgeStyle=orthogonalEdgeStyle;rounded=0;orthogonalLoop=1;jettySize=auto;html=1;exitX=0;exitY=0.5;exitDx=0;exitDy=0;entryX=0;entryY=0.5;entryDx=0;entryDy=0;entryPerimeter=0;" edge="1" parent="1" source="LZMtIkJjisC_x56uzXUe-13" target="LZMtIkJjisC_x56uzXUe-13">
          <mxGeometry relative="1" as="geometry" />
        </mxCell>
        <mxCell id="LZMtIkJjisC_x56uzXUe-14" style="edgeStyle=orthogonalEdgeStyle;rounded=0;orthogonalLoop=1;jettySize=auto;html=1;exitX=0;exitY=0.5;exitDx=0;exitDy=0;entryX=0.75;entryY=1;entryDx=0;entryDy=0;" edge="1" parent="1" source="LZMtIkJjisC_x56uzXUe-13" target="LZMtIkJjisC_x56uzXUe-5">
          <mxGeometry relative="1" as="geometry" />
        </mxCell>
        <mxCell id="LZMtIkJjisC_x56uzXUe-13" value="user-service (random)" style="rounded=0;whiteSpace=wrap;html=1;" vertex="1" parent="1">
          <mxGeometry x="294" y="60" width="120" height="60" as="geometry" />
        </mxCell>
        <mxCell id="LZMtIkJjisC_x56uzXUe-15" style="edgeStyle=orthogonalEdgeStyle;rounded=0;orthogonalLoop=1;jettySize=auto;html=1;exitX=0;exitY=0.5;exitDx=0;exitDy=0;entryX=0;entryY=0.5;entryDx=0;entryDy=0;entryPerimeter=0;" edge="1" parent="1" source="LZMtIkJjisC_x56uzXUe-16" target="LZMtIkJjisC_x56uzXUe-16">
          <mxGeometry relative="1" as="geometry" />
        </mxCell>
        <mxCell id="LZMtIkJjisC_x56uzXUe-17" style="edgeStyle=orthogonalEdgeStyle;rounded=0;orthogonalLoop=1;jettySize=auto;html=1;exitX=0;exitY=0.5;exitDx=0;exitDy=0;entryX=0.75;entryY=0;entryDx=0;entryDy=0;" edge="1" parent="1" source="LZMtIkJjisC_x56uzXUe-16" target="LZMtIkJjisC_x56uzXUe-5">
          <mxGeometry relative="1" as="geometry" />
        </mxCell>
        <mxCell id="LZMtIkJjisC_x56uzXUe-16" value="product-service (random)" style="rounded=0;whiteSpace=wrap;html=1;" vertex="1" parent="1">
          <mxGeometry x="292" y="-120" width="120" height="60" as="geometry" />
        </mxCell>
        <mxCell id="LZMtIkJjisC_x56uzXUe-18" style="edgeStyle=orthogonalEdgeStyle;rounded=0;orthogonalLoop=1;jettySize=auto;html=1;exitX=0;exitY=0.5;exitDx=0;exitDy=0;entryX=0;entryY=0.5;entryDx=0;entryDy=0;entryPerimeter=0;" edge="1" parent="1" source="LZMtIkJjisC_x56uzXUe-19" target="LZMtIkJjisC_x56uzXUe-19">
          <mxGeometry relative="1" as="geometry" />
        </mxCell>
        <mxCell id="LZMtIkJjisC_x56uzXUe-20" style="edgeStyle=orthogonalEdgeStyle;rounded=0;orthogonalLoop=1;jettySize=auto;html=1;exitX=0;exitY=0.5;exitDx=0;exitDy=0;entryX=0.5;entryY=0;entryDx=0;entryDy=0;" edge="1" parent="1" source="LZMtIkJjisC_x56uzXUe-19" target="LZMtIkJjisC_x56uzXUe-5">
          <mxGeometry relative="1" as="geometry" />
        </mxCell>
        <mxCell id="LZMtIkJjisC_x56uzXUe-19" value="supplier-service (random)" style="rounded=0;whiteSpace=wrap;html=1;" vertex="1" parent="1">
          <mxGeometry x="290" y="-210" width="124" height="60" as="geometry" />
        </mxCell>
        <mxCell id="LZMtIkJjisC_x56uzXUe-21" value="mongo-db (27017)" style="shape=cylinder3;whiteSpace=wrap;html=1;boundedLbl=1;backgroundOutline=1;size=15;fillColor=#d5e8d4;strokeColor=#82b366;" vertex="1" parent="1">
          <mxGeometry x="480" y="45" width="70" height="90" as="geometry" />
        </mxCell>
        <mxCell id="LZMtIkJjisC_x56uzXUe-22" style="edgeStyle=orthogonalEdgeStyle;rounded=0;orthogonalLoop=1;jettySize=auto;html=1;exitX=1;exitY=0.5;exitDx=0;exitDy=0;entryX=0;entryY=0.5;entryDx=0;entryDy=0;entryPerimeter=0;" edge="1" parent="1" source="LZMtIkJjisC_x56uzXUe-13" target="LZMtIkJjisC_x56uzXUe-21">
          <mxGeometry relative="1" as="geometry" />
        </mxCell>
        <mxCell id="LZMtIkJjisC_x56uzXUe-23" value="mongo-express (8081)&lt;br&gt;&lt;br&gt;&lt;div style=&quot;background-color:#1e1f22;color:#bcbec4&quot;&gt;&lt;pre style=&quot;font-family:&#39;JetBrains Mono&#39;,monospace;font-size:9,8pt;&quot;&gt;mongodbuser20m2&lt;/pre&gt;&lt;/div&gt;&lt;div style=&quot;background-color:#1e1f22;color:#bcbec4&quot;&gt;&lt;pre style=&quot;font-family:&#39;JetBrains Mono&#39;,monospace;font-size:9,8pt;&quot;&gt;mongodbpassword20m2&lt;/pre&gt;&lt;/div&gt;" style="strokeWidth=2;html=1;shape=mxgraph.flowchart.document2;whiteSpace=wrap;size=0.25;" vertex="1" parent="1">
          <mxGeometry x="443.75" y="200" width="142.5" height="150" as="geometry" />
        </mxCell>
        <mxCell id="LZMtIkJjisC_x56uzXUe-24" style="edgeStyle=orthogonalEdgeStyle;rounded=0;orthogonalLoop=1;jettySize=auto;html=1;exitX=0.5;exitY=1;exitDx=0;exitDy=0;exitPerimeter=0;entryX=0.5;entryY=0;entryDx=0;entryDy=0;entryPerimeter=0;" edge="1" parent="1" source="LZMtIkJjisC_x56uzXUe-21" target="LZMtIkJjisC_x56uzXUe-23">
          <mxGeometry relative="1" as="geometry" />
        </mxCell>
      </root>
    </mxGraphModel>
  </diagram>
</mxfile>
